<svg viewBox="0 0 1452 1452" version="1.1" xmlns="http://www.w3.org/2000/svg" desc="Created with imagetracer.js version 1.2.6" ><path fill="rgb(0,0,0)" stroke="rgb(0,0,0)" stroke-width="0" opacity="0" d="M 0 0 L 1452 0 L 1452 1452 L 0 1452 L 0 0 Z M 726 226 L 3 1224 L 2 1226 L 350 957 L 435 1026 L 738 727 L 1055 1026 L 1173 977 L 1175 977 L 1180 981 L 1440 1217 L 1451 1226 L 729 229 L 726 226 Z " /><path fill="rgb(255,44,4)" stroke="rgb(255,44,4)" stroke-width="0" opacity="0.996078431372549" d="M 580.5 429 L 581 431 L 583 431.5 L 582.5 435 Q 585.1 434.2 584 437.5 L 586 437.5 Q 585.3 439.8 587.5 439 L 587.5 440 Q 585.3 439.3 586 441.5 L 588 441.5 L 587.5 443 L 589 443.5 L 588.5 445 Q 590.8 444.3 590 446.5 L 591 449 L 593 449.5 Q 590.5 451 594 452.5 L 596 455.5 L 594 455.5 L 595 459 L 599 461.5 L 597 461.5 L 597 463 L 599 463 Q 597.9 465.7 600.5 465 L 600.5 467 L 602 467.5 L 600 468.5 L 602 469 Q 600.9 471.7 603.5 471 L 604.5 474 L 606 473.5 L 604 476.5 L 605.5 477 L 607 476.5 L 606 478.5 L 608 478.5 L 607 481 L 609 481.5 Q 606.5 483 610 484.5 L 613 490 L 611 490.5 L 616 493.5 L 615.5 495 L 617 495.5 L 615 496.5 L 618 497.5 L 616 498.5 L 621 501.5 L 619 502.5 L 621 503 L 622 505.5 L 621 507.5 L 623 507.5 L 624 511 Q 626.7 509.9 626 512.5 Q 622.3 514.3 625.5 516 L 627 515.5 L 626 518 Q 628.7 516.9 628 519.5 L 629 522 L 632 523.5 L 631.5 527 L 633 527.5 L 632.5 529 Q 634.8 528.3 634 530.5 L 635 533 L 637 533.5 L 635 534.5 L 637 535 L 639.5 541 L 641 540.5 L 640 543 Q 642.7 541.9 642 544.5 Q 645.1 546.3 643.5 548 L 645 548.5 L 643 549.5 L 646 550.5 L 646 552.5 L 648 555.5 L 647.5 557 L 650 558.5 L 648.5 561 Q 650.8 560.3 650 562.5 L 651 562.5 L 651.5 561 L 652 562.5 Q 649.5 564 653 565.5 L 653.5 569 L 654.5 567 L 656.5 572 L 658 571.5 L 656 574.5 L 658 575 L 658.5 577 L 660 576.5 L 660 578.5 Q 659.3 580.8 661.5 580 Q 659.9 581.8 663 583.5 L 662 584.5 L 662.5 586 L 664 585.5 Q 661.8 586.8 664.5 588 L 666 587.5 L 665 589.5 L 667 589.5 L 666 591.5 L 668 595 L 670 595.5 L 668 596.5 L 669 599 L 671 598.5 L 670.5 597 Q 673.3 598.3 671 599.5 L 672.5 604 L 674 603.5 L 675 606.5 L 674 608.5 L 677 609.5 L 676 612 L 678 612.5 Q 675.2 614.3 679.5 616 L 681 615.5 L 680 618.5 L 682 618.5 L 681 621.5 L 683 621.5 L 682 623.5 Q 684.5 628.3 687 626.5 L 686 628.5 Q 689.1 630.3 687.5 632 L 690 633.5 L 690 636.5 L 694.5 643 L 696 643.5 L 694 644.5 L 696 645.5 L 695 647.5 L 698 648.5 L 698 650.5 L 699 655 Q 701.7 653.9 701 656.5 Q 704.5 658 702 659.5 L 704 662.5 L 703.5 664 L 705.5 663 L 706 665.5 Q 705.3 669.3 707.5 670 L 709 669.5 L 710 671.5 L 709 673.5 L 711 673.5 L 710.5 675 Q 713.1 674.2 712 677.5 L 711 679.5 L 714 680.5 L 714.5 684 L 716.5 683 L 715 685.5 L 717 688.5 L 721 692.5 Q 718.8 693.8 721.5 695 L 723 694.5 L 721.5 697 L 723 697.5 L 722.5 699 L 725 699.5 L 725 701.5 Q 724.3 703.8 726.5 703 L 726.5 704 Q 724.3 703.3 725 705.5 L 727 705.5 L 726.5 707 Q 729.1 706.2 728 709.5 L 730 709.5 L 729 711.5 L 730.5 714 L 732 713.5 L 731.5 715 L 733 715.5 L 732.5 717 Q 734.8 716.3 734 718.5 L 734.5 720 L 733 719.5 L 734.5 722 L 736.5 721 L 736.5 722 L 735 722.5 L 738 724.5 L 737.5 726 L 736 725.5 L 734 730 L 732 730 Q 733.1 732.7 730.5 732 L 650.5 813 L 647 815.5 L 645.5 818 L 639 823.5 L 637.5 826 L 586.5 876 L 585 876 L 581.5 881 L 579 882.5 Q 579.8 884.8 577.5 884 L 566.5 894 L 565 893.5 L 565 895 Q 561.3 893.5 562 896.5 L 560 897.5 L 562 893 L 560 892.5 L 561 889.5 L 560.5 887 L 558.5 888 L 557.5 885 L 556 885.5 L 558 882.5 L 556 881.5 L 555.5 883 L 554 880.5 L 554.5 879 L 552.5 880 L 554 877.5 L 553.5 876 Q 551.7 878.7 550 874.5 L 551 872.5 Q 547.9 870.8 549.5 869 L 548 868.5 L 550 867.5 L 548.5 866 L 546 867.5 Q 549.1 865.8 547.5 864 L 549 863.5 L 546 863 L 544.5 866 L 545 864.5 L 546 861 L 544 860.5 L 545 858.5 L 542 859.5 L 542.5 858 L 541 857.5 L 542.5 857 L 544 857.5 L 545 855.5 L 543.5 855 L 542 855.5 L 541.5 853 L 540 853.5 Q 542.5 852 539 850.5 L 538.5 849 L 536.5 850 L 536.5 849 L 539 847.5 L 537.5 847 L 536 847.5 L 538 844.5 L 535.5 846 L 534 845.5 L 536 844.5 Q 532.5 843 535 841.5 L 534.5 840 L 532 841.5 L 530 838.5 L 532.5 840 L 534 839.5 L 533.5 837 L 530.5 836 L 529 836.5 Q 532.8 834.8 529.5 833 L 528 833.5 Q 530.3 832.3 527.5 831 L 526 831.5 Q 527.3 828.8 528.5 831 Q 531.1 831.7 530 829 L 528 828.5 L 529 826.5 L 527 827.5 L 525.5 830 L 526 828.5 L 527 826.5 L 525 825.5 L 526 821.5 L 524.5 822 L 522.5 821 L 521 821.5 L 521.5 819 Q 523.8 819.8 523 817.5 L 521.5 818 L 520 817.5 L 523 815.5 L 521.5 815 L 520 815.5 L 520.5 814 L 518 813.5 L 520 812.5 Q 516.5 811 519 809.5 L 518.5 808 L 516 809.5 L 514 806.5 L 516.5 808 L 518 807.5 L 514.5 804 L 513.5 805 L 512 804.5 L 515 802.5 L 512 801.5 Q 514.3 800.3 511.5 799 L 510 799.5 L 511 797.5 L 509 797.5 L 511 794.5 L 508.5 793 L 507 793.5 L 508 790.5 L 506.5 789 L 505 789.5 L 505.5 787 Q 507.8 787.8 507 785.5 L 505.5 786 L 504 785.5 L 507 783.5 L 505.5 783 L 502.5 784 L 502.5 783 L 505 782.5 L 501.5 781 L 500 781.5 L 500 777.5 L 498 774.5 L 500 773.5 Q 498.7 770.8 497.5 773 Q 495.3 773.8 496 771.5 L 499 770.5 L 495.5 770 L 494 770.5 L 497 768.5 L 494 767.5 L 495 765.5 L 493 765.5 L 495 762.5 L 492.5 761 L 491 761.5 L 492 758.5 L 490.5 757 L 489 757.5 L 489 755.5 L 488 753.5 L 490 752.5 L 485 751.5 L 489 750.5 L 485.5 749 L 484 749.5 L 484.5 748 L 483 747.5 L 485 746.5 L 482.5 743 L 481 743.5 L 484 741.5 Q 482.7 738.8 481.5 741 Q 479.3 741.8 480 739.5 L 483 738.5 L 479.5 738 Q 478.2 740.2 477 737.5 L 479.5 737 L 481 736.5 L 479.5 735 L 476 735.5 L 479 730.5 L 477 730 Q 478.1 732.7 475.5 732 L 475.5 728 L 473.5 729 Q 470.8 727.8 473 726.5 L 474 724.5 L 473 722 L 470 721.5 L 474 720.5 L 469 719.5 L 473 718.5 L 469.5 717 L 468 717.5 L 468.5 716 L 467 715.5 L 469 714.5 L 464 712.5 Q 468 710.5 464 708.5 L 464.5 707 Q 465.8 709.3 467 706.5 L 463.5 706 L 461 707.5 L 462 704.5 L 461.5 703 L 460 703.5 Q 462.3 702.3 459.5 701 L 458 701.5 L 460 698.5 L 459.5 696 Q 456.5 695.1 458 699.5 L 457 699.5 L 456 695.5 L 458 692.5 L 457 690 Q 453.3 691.5 454 688.5 L 453.5 687 L 456 686.5 L 453.5 685 Q 451.8 688.8 450 685.5 L 453 684.5 L 451 683.5 L 453 682.5 L 448 680.5 L 448.5 679 L 446.5 680 L 446.5 677 L 448.5 678 L 446.5 675 L 445 675.5 L 446 672.5 L 445.5 671 L 444 671.5 Q 446.3 670.3 443.5 669 L 442.5 671 L 442 669.5 L 444 666.5 L 443.5 664 Q 440.5 663.1 442 667.5 L 441 667.5 L 440 663.5 L 442 660.5 L 440 660 Q 441.1 662.7 438.5 662 L 438.5 664 L 437.5 661 L 436 660.5 L 441 658.5 L 438 658 L 437.5 656 L 435.5 659 L 435.5 656 L 437 655.5 L 434 653.5 L 435 651 L 437 650.5 L 434 650 L 432.5 653 L 433 651.5 L 432 648.5 L 432.5 647 L 430.5 648 L 429.5 645 L 428 645.5 L 430 642.5 L 428 641.5 L 427.5 643 L 427 641.5 L 439 621.5 L 577 431 L 580.5 429 Z M 674 605 L 672 607 L 674 607 L 674 605 Z M 688 633 L 689 635 Q 690 632 688 633 Z M 431 643 L 430 645 L 433 646 L 431 643 Z M 435 647 L 433 649 L 436 649 L 435 647 Z M 443 661 Q 441 664 444 663 L 443 661 Z M 446 667 L 444 669 L 446 669 L 446 667 Z M 448 674 L 449 675 Q 450 677 451 675 L 448 674 Z M 451 676 Q 449 679 452 678 L 451 676 Z M 451 679 L 449 681 L 452 681 L 451 679 Z M 719 691 Q 717 694 720 693 L 719 691 Z M 459 693 Q 457 696 460 695 L 459 693 Z M 462 699 L 460 701 L 462 701 L 462 699 Z M 467 708 Q 465 711 468 710 L 467 708 Z M 467 711 L 465 713 L 468 713 L 467 711 Z M 475 725 Q 473 728 476 727 L 475 725 Z M 478 726 L 477 729 L 478 729 L 478 726 Z M 485 742 Q 483 745 486 744 L 485 742 Z M 486 747 L 487 749 L 488 749 L 486 747 Z M 492 755 Q 490 758 493 757 L 492 755 Z M 494 757 L 493 761 L 494 761 L 494 757 Z M 496 765 Q 495 768 498 767 Q 499 764 496 765 Z M 501 774 Q 499 777 502 776 L 501 774 Z M 503 776 L 501 778 L 503 778 L 503 776 Z M 502 779 L 503 781 L 504 781 L 502 779 Z M 508 787 Q 506 790 509 789 L 508 787 Z M 510 789 L 509 793 L 510 793 L 510 789 Z M 512 797 Q 511 800 514 799 Q 515 796 512 797 Z M 516 803 L 516 804 L 518 804 L 516 803 Z M 520 810 L 521 812 Q 522 809 520 810 Z M 524 819 Q 522 822 525 821 L 524 819 Z M 527 819 Q 525 822 528 821 L 527 819 Z M 527 823 L 528 826 L 529 824 L 527 823 Z M 533 834 L 531 836 L 534 836 L 533 834 Z M 535 838 L 536 840 Q 537 837 535 838 Z M 536 842 L 537 844 Q 538 841 536 842 Z M 543 851 Q 541 854 544 853 L 543 851 Z M 552 868 L 552 870 L 554 869 L 552 868 Z M 551 870 L 552 872 Q 553 869 551 870 Z M 553 872 L 551 875 L 553 876 L 553 872 Z M 556 877 Q 554 880 557 879 L 556 877 Z M 559 883 L 558 885 L 561 886 L 559 883 Z M 562 890 L 563 893 L 563 891 L 565 891 L 562 890 Z " /><path fill="rgb(255,44,4)" stroke="rgb(255,44,4)" stroke-width="0" opacity="0.996078431372549" d="M 449.5 683 L 448.5 685 L 449.5 683 Z " /><path fill="rgb(255,44,4)" stroke="rgb(255,44,4)" stroke-width="0" opacity="0.996078431372549" d="M 451.5 688 Q 454.5 689.5 451.5 691 L 451.5 688 Z " /><path fill="rgb(255,44,4)" stroke="rgb(255,44,4)" stroke-width="0" opacity="0.996078431372549" d="M 454.5 691 L 456 691.5 L 453.5 693 L 454.5 691 Z " /><path fill="rgb(255,44,4)" stroke="rgb(255,44,4)" stroke-width="0" opacity="0.996078431372549" d="M 467.5 720 L 468.5 722 L 467.5 720 Z " /><path fill="rgb(255,44,4)" stroke="rgb(255,44,4)" stroke-width="0" opacity="0.996078431372549" d="M 470.5 723 L 472 723.5 L 469.5 725 L 470.5 723 Z " /><path fill="rgb(255,44,4)" stroke="rgb(255,44,4)" stroke-width="0" opacity="0.996078431372549" d="M 488.5 759 L 489.5 761 L 488.5 759 Z " /><path fill="rgb(255,44,4)" stroke="rgb(255,44,4)" stroke-width="0" opacity="0.996078431372549" d="M 537.5 851 L 538.5 853 L 537.5 851 Z " /><path fill="rgb(255,44,4)" stroke="rgb(255,44,4)" stroke-width="0" opacity="0.996078431372549" d="M 546.5 870 L 547.5 872 L 546.5 870 Z " /><path fill="rgb(255,44,4)" stroke="rgb(255,44,4)" stroke-width="0" opacity="0.996078431372549" d="M 559.5 890 L 558.5 892 L 559.5 890 Z " /><path fill="rgb(255,99,35)" stroke="rgb(255,99,35)" stroke-width="0" opacity="0.9921568627450981" d="M 723.5 231 L 725 234 L 727 234.5 L 725 235.5 L 728 237.5 L 727.5 239 L 729 239.5 L 728.5 241 L 730 241.5 L 728 242.5 L 733 245.5 L 731 246.5 L 733 247 L 734 249.5 L 733 251.5 L 735 251.5 L 736 255 Q 738.7 253.9 738 256.5 L 736.5 259 L 739.5 258 L 738 260.5 L 740 262.5 L 741 266 L 744 267.5 L 743.5 271 L 745 271.5 L 744.5 273 Q 746.8 272.3 746 274.5 L 747 277 L 749 277.5 L 747 278.5 L 749 279 L 750.5 283 L 752 282.5 L 751 284.5 L 753 284.5 L 752 287 Q 754.7 285.9 754 288.5 Q 757.1 290.3 755.5 292 L 758 292.5 L 755 293.5 L 759 295.5 L 758 297.5 L 760 297.5 Q 757.5 299 761 300.5 L 762 302.5 L 761 304.5 L 764 305.5 L 763 307.5 Q 765.8 308.8 765.5 313 L 766.5 311 L 768.5 316 L 770 315.5 L 768 318.5 L 770 319 L 770.5 321 L 772 320.5 L 772 322.5 Q 771.3 324.8 773.5 324 Q 771.9 325.8 775 327.5 L 774 328.5 L 774.5 330 L 776 329.5 Q 773.8 330.8 776.5 332 L 777.5 330 L 778 331.5 L 777 333.5 L 779 333.5 L 778 335.5 L 780 339 Q 782.7 337.9 782 340.5 Q 785.5 342 783 343.5 L 784.5 348 L 786 347.5 L 788 350.5 L 786 351 L 786.5 353 Q 787.8 350.8 789 353.5 L 788 356 L 791 357.5 L 791.5 360 L 793 359.5 L 792 362.5 L 794 362.5 L 793 365.5 L 795 365.5 L 794 367.5 L 799 370.5 L 798 372.5 Q 801.1 374.3 799.5 376 L 802 377.5 Q 801.3 381.3 803.5 382 L 805 381.5 L 804 383.5 L 806.5 387 L 808 387.5 L 806 388.5 L 808 389.5 L 807 391.5 L 810 392.5 L 811 399 Q 813.7 397.9 813 400.5 Q 816.5 402 814 403.5 L 815.5 406 L 818 407.5 L 817.5 409 L 819 409.5 L 818.5 411 L 820 411.5 L 818 412.5 L 821 413.5 Q 820.3 415.8 822.5 415 L 822.5 416 Q 820.3 415.3 821 417.5 L 823 417.5 L 822.5 419 Q 825.1 418.2 824 421.5 L 823.5 423 L 826 424.5 L 826.5 428 L 828.5 427 L 828.5 429 Q 830.8 428.3 830 430.5 L 830.5 432 L 829 431.5 L 833 436.5 Q 830.8 437.8 833.5 439 L 835 438.5 L 833.5 441 L 835 441.5 L 834.5 443 L 837 443.5 L 837 445.5 Q 836.3 447.8 838.5 447 L 838.5 448 Q 836.3 447.3 837 449.5 L 839 449.5 L 838.5 451 Q 841.1 450.2 840 453.5 L 842 453.5 L 841 455.5 L 842.5 458 L 844 457.5 L 843.5 459 L 845 459.5 L 844.5 461 Q 846.8 460.3 846 462.5 L 847 465 L 849 465.5 Q 846.5 467 850 468.5 L 851 470.5 L 849.5 473 L 853 473.5 L 851 474.5 L 853 475.5 L 853 477.5 L 853 479 L 855 479 Q 853.9 481.7 856.5 481 L 856.5 483 L 858 483.5 L 856 484.5 L 858 485 Q 856.9 487.7 859.5 487 L 860.5 490 L 862 489.5 L 860 492.5 L 861.5 493 L 863 492.5 L 862 494.5 L 864 494.5 L 863 497 L 865 497.5 Q 862.5 499 866 500.5 L 869 506 L 867 506.5 L 872 509.5 L 871.5 511 L 873 511.5 L 871 512.5 L 874 513.5 L 872 514.5 L 876 517.5 L 874 517.5 L 874 519 Q 877.7 517.5 877 520.5 L 877 522.5 L 877.5 524 L 879 523.5 L 880 526.5 Q 877.7 527.8 880.5 529 L 881.5 527 L 882 528.5 L 880.5 531 L 883 531.5 L 882 534 Q 884.7 532.9 884 535.5 L 885 538 L 887 538.5 L 885 539.5 L 888 541.5 L 887.5 543 L 889 543.5 L 888.5 545 Q 890.8 544.3 890 546.5 L 891 549 L 893 549.5 L 891 550.5 L 893 551 L 895.5 557 L 897 556.5 L 896 559 Q 899 557.8 898 561.5 L 897.5 563 L 899.5 562 L 899.5 564 L 901 564.5 L 899 565.5 L 902 566.5 L 902 568.5 L 904 571.5 L 903.5 573 L 906 574.5 L 904.5 577 Q 906.8 576.3 906 578.5 L 907 578.5 L 907.5 577 L 908 578.5 Q 905.5 580 909 581.5 L 909.5 585 L 910.5 583 L 912 586.5 L 911 588.5 L 913 588.5 L 912 590.5 L 914 591 L 914.5 593 L 916 592.5 L 916 594.5 Q 915.3 596.8 917.5 596 Q 915.9 597.8 919 599.5 L 918 600.5 L 918.5 602 L 920 601.5 Q 917.8 602.8 920.5 604 L 922 603.5 L 921 605.5 L 923 605.5 L 922 607.5 L 925 611.5 L 925 613.5 Q 924.3 615.8 926.5 615 L 926.5 613 Q 929.3 614.3 927 615.5 L 928.5 620 L 930 619.5 L 931 622.5 L 930 624.5 L 933 625.5 L 932 628 L 934 628.5 Q 931.2 630.3 935.5 632 L 937 631.5 L 936 634.5 L 938 634.5 L 937 637.5 L 939 637.5 L 938 639.5 L 944 646.5 L 943.5 648 L 946 649.5 L 944.5 649 L 943 649.5 L 946 651 L 948 654.5 L 947.5 656 Q 949.8 655.3 949 657.5 Q 952.1 659.3 950.5 661 L 952 661.5 L 951 663.5 L 953 663.5 Q 950.5 665 954 666.5 L 955 671 Q 957.7 669.9 957 672.5 Q 960.5 674 958 675.5 L 960 678.5 L 959.5 680 L 962 681.5 Q 961.3 685.3 963.5 686 L 965 685.5 L 964 687.5 L 966 687.5 L 965 689.5 L 967 689.5 L 966.5 691 Q 969.1 690.2 968 693.5 L 967 695.5 L 970 696.5 L 970.5 700 L 972.5 699 L 972 700.5 L 971 702.5 L 973 703 L 973.5 701 L 975 703.5 L 973 703.5 L 977 708.5 L 976 709.5 Q 979.1 711.3 977.5 713 L 979 713.5 L 978.5 715 Q 980.8 714.3 980 716.5 L 981 719 L 983 719.5 L 981 720 L 981.5 722 L 983 721.5 L 982.5 723 Q 985.1 722.2 984 725.5 L 986 725.5 L 985 727.5 L 986.5 730 L 988 729.5 L 987.5 731 L 989 731.5 L 988.5 733 Q 990.8 732.3 990 734.5 L 991 737 L 993 737.5 L 991 738.5 L 994 740.5 L 992 741.5 L 995 742.5 L 993.5 745 L 997 745.5 L 995 746.5 L 997 747.5 L 997 749.5 L 997 751 L 999 751 Q 997.9 753.7 1000.5 753 L 1000 754.5 L 1000 757 L 1002 757 Q 1000.9 759.7 1003.5 759 Q 1001.9 760.8 1005 762.5 L 1004 764.5 L 1006 765 L 1007 769 L 1009 769.5 Q 1006.5 771 1010 772.5 L 1013 778 L 1011 778.5 L 1015 781.5 Q 1014.3 783.8 1016.5 783 L 1016.5 784 L 1015 784.5 L 1017 785.5 L 1016.5 787 L 1020 789.5 L 1018 789.5 Q 1017.2 792.1 1020.5 791 L 1020.5 792 L 1019 792.5 L 1022 793.5 L 1020 796.5 L 1022 797 L 1022.5 795 L 1023 796.5 L 1022 798.5 L 1024 798.5 L 1023 801 L 1025 801.5 L 1024.5 803 L 1027 803.5 L 1026 806 Q 1028.7 804.9 1028 807.5 L 1029 810 L 1031 810.5 L 1029 811.5 L 1032 813.5 L 1031.5 815 L 1033 815.5 L 1032.5 817 Q 1034.8 816.3 1034 818.5 L 1035 821 L 1037 821.5 L 1035 822.5 L 1037 823 L 1039.5 829 L 1041 828.5 L 1040 831 Q 1042.7 829.9 1042 832.5 L 1041 835 L 1043.5 834 L 1043 837.5 L 1044.5 839 L 1046 838.5 L 1046 840.5 L 1048 843.5 L 1047.5 847 L 1049.5 846 L 1048.5 849 Q 1050.8 848.3 1050 850.5 L 1051 850.5 L 1051.5 849 L 1052 850.5 L 1051 853 L 1053 853 L 1053 857 L 1054.5 857 Q 1057.3 858.2 1055 859.5 L 1055.5 861 L 1057 860.5 L 1056 863 Q 1058.7 861.9 1058 864.5 L 1060 864.5 L 1059.5 868 L 1062 868.5 L 1059 869.5 L 1063 871.5 L 1062 873.5 L 1064 873.5 Q 1061.8 874.8 1064.5 876 L 1066 875.5 L 1065 877.5 L 1067 877.5 L 1066 879.5 L 1069 883.5 L 1069 885.5 L 1069.5 889 L 1070.5 887 L 1072.5 892 L 1074 891.5 L 1072 894.5 L 1074 895 L 1074.5 897 Q 1075.8 894.8 1077 897.5 L 1076 900 L 1078 900.5 L 1077 901.5 L 1080 904.5 L 1079 906.5 L 1080.5 907 L 1082 906.5 L 1081 909.5 L 1083 909.5 L 1082 911.5 L 1084 915 Q 1086.7 913.9 1086 916.5 Q 1089.5 918 1087 919.5 L 1088.5 924 L 1090 923.5 L 1092 926.5 L 1090 927 L 1090.5 929 Q 1091.8 926.8 1093 929.5 L 1092 931.5 L 1093.5 932 L 1095 931.5 L 1094.5 933 L 1096 933.5 L 1095 935.5 L 1097 935.5 L 1096 938.5 L 1098 938.5 L 1097 941.5 L 1099 941.5 L 1101 944.5 Q 1104.5 946 1102 947.5 L 1104 950.5 L 1103.5 952 L 1106 953.5 Q 1105.3 957.3 1107.5 958 L 1109 957.5 L 1108 959.5 L 1110.5 963 L 1112 963.5 L 1110 964.5 L 1112 965.5 L 1111 967.5 L 1114 968.5 L 1114.5 972 L 1116 971.5 L 1115 975 Q 1117.7 973.9 1117 976.5 Q 1120.5 978 1118 979.5 Q 1117.3 981.8 1119.5 981 L 1121 980.5 L 1120 981.5 Q 1123.1 983.3 1121.5 985 L 1123 985.5 L 1122.5 987 L 1124 987.5 L 1122 988.5 L 1125 989.5 Q 1124.3 991.8 1126.5 991 L 1126.5 992 Q 1124.3 991.3 1125 993.5 L 1127 993.5 L 1126 996 L 1054.5 1026 L 946 923.5 L 948.5 925 L 952.5 926 L 952.5 925 L 950 923.5 L 950 921.5 L 946 916.5 L 946.5 915 L 945 914.5 L 946 911 L 943.5 912 L 944 910.5 L 942.5 907 L 941 907.5 L 942 905.5 L 941 903 L 939 902.5 L 941 901.5 L 939 901 L 938 897 L 936 896.5 L 936.5 895 L 935 894.5 Q 937.3 893.3 934.5 892 L 933 891.5 L 935 890.5 L 933 890 L 932.5 888 Q 931.3 890.2 930 887.5 L 932 887.5 L 930 884.5 L 930.5 883 L 928 882.5 L 929 881.5 L 927 877.5 L 926.5 875 L 924 876.5 L 925 874.5 L 923.5 872 L 925 872.5 Q 925.8 870.3 923.5 871 Q 919.2 869.2 922 867.5 Q 923.3 863.8 919.5 865 L 919.5 864 L 921 863.5 L 919 862.5 L 919.5 861 L 915 858.5 L 917 858 L 916.5 856 Q 915.2 858.3 914 855.5 L 914 853.5 L 912 850.5 L 912.5 849 Q 910.3 849.8 911 847.5 L 910 845 L 908 844.5 L 909 842.5 L 906 841.5 L 907.5 839 L 905.5 840 L 906 838.5 Q 906.8 836.3 904.5 837 L 904.5 836 L 906 835.5 L 904 834.5 L 904.5 833 Q 901.9 833.7 903 831 L 901 831 L 901 827 L 899.5 827 L 899.5 826 L 901 825.5 L 898 825 L 899 822.5 L 896 818.5 L 896.5 817 L 894.5 818 L 892 814.5 L 894 814.5 Q 894.8 812.3 892.5 813 L 892.5 811 L 890 809.5 L 889 807.5 L 890 805.5 L 887 806.5 L 888 803 L 885 801.5 L 884 799.5 L 885 797.5 L 883 797.5 L 884.5 795 L 882 794.5 L 882.5 793 L 881 792.5 Q 883.8 790.7 879.5 789 L 878 788.5 L 880 787.5 L 877 786.5 L 877 784.5 L 876 782.5 L 878 782.5 Q 878.8 780.3 876.5 781 L 876.5 779 L 874.5 780 L 874 777.5 L 872.5 775 L 871 774.5 L 872 771 L 869.5 772 L 869 769.5 L 868 767.5 L 869 765.5 L 866 764.5 L 868 763.5 L 866 762.5 L 866.5 761 L 863 759.5 L 865 758.5 L 862 756.5 L 861 754.5 L 861 752.5 Q 861.8 750.3 859.5 751 L 858 751.5 L 859 748.5 L 857.5 744 Q 856.3 746.3 855 743.5 L 856 741.5 L 852 739.5 L 854 738.5 L 850.5 733 L 849 733.5 L 850 729.5 L 847 727.5 Q 849.5 726 846 724.5 L 842 719.5 L 843 717.5 L 841 717.5 L 842 714.5 L 840 714.5 L 838.5 709 L 837 709.5 L 837.5 708 Q 835.3 708.8 836 706.5 L 834 703 L 836 702.5 L 834.5 701 L 832 702.5 L 834 699.5 L 832 699.5 L 831 695 Q 828.3 696.1 829 693.5 Q 825.5 692 828 690.5 L 827.5 689 L 826 689.5 L 827 686.5 L 826.5 685 L 825 685.5 L 824.5 684 Q 823.3 686.3 822 683.5 L 822 681.5 L 821 679.5 L 821.5 676 Q 819.3 676.8 820 674.5 L 818 671 L 816 670.5 L 817 668.5 L 815 668.5 L 816 666.5 L 814.5 663 L 813.5 665 L 813 661.5 L 808 654.5 L 809 652.5 L 806 651.5 L 806 649.5 L 802 644.5 L 802.5 643 L 801 642.5 L 803 641.5 L 802 639 Q 799.3 640.1 800 637.5 L 797 631 L 795 630.5 L 797 629.5 L 795 629 L 794 625 L 792 624.5 L 792.5 623 L 791 622.5 Q 793.3 621.3 790.5 620 L 789 619.5 L 791 618.5 L 789 618 L 786 612.5 L 786.5 611 L 784 610.5 L 786 607 L 783.5 608 L 784 606.5 L 782.5 603 L 781 603.5 L 780 601.5 L 781 599 L 777 596.5 L 778 593 L 776 592.5 L 776.5 591 L 775 590.5 L 775.5 589 L 772 586.5 L 773 584.5 L 770 583.5 L 772 583.5 L 770 580.5 Q 766.9 578.8 768.5 577 Q 766.3 577.8 767 575.5 L 766 573 L 764 572.5 L 765 570.5 L 763 570.5 L 763.5 567 L 760.5 565 L 760.5 564 L 762 563.5 L 760 562.5 L 760.5 561 L 759 561 L 759 559 Q 756.3 560.1 757 557.5 Q 759.3 556.3 756.5 555 L 755 554.5 L 757 553.5 L 754 553 L 755 550.5 L 752 546.5 L 752.5 545 L 750.5 546 L 751 544.5 L 750 541 L 748 540.5 L 748.5 539 L 746 537.5 L 747.5 535 L 745.5 536 L 746 534.5 L 745.5 533 L 744 533.5 L 743 530.5 L 745 529.5 L 742 528.5 L 742.5 527 Q 740.3 527.8 741 525.5 L 739 525.5 L 740.5 523 L 737.5 521 Q 739.2 519 735.5 517 L 734 516.5 L 735.5 516 L 737 516.5 Q 737.8 514.3 735.5 515 L 732 510.5 L 734 510.5 Q 734.8 508.3 732.5 509 L 732.5 507 L 730 505.5 L 728.5 502 L 727 502.5 L 728 499 L 725 497.5 L 724 495.5 L 725 493.5 L 722 492.5 L 725 491.5 L 722 490.5 L 722.5 489 L 719 487.5 L 721 486.5 L 718 485 L 717 482.5 L 717 480.5 L 715 477.5 L 716 475.5 L 714 475.5 L 713.5 472 Q 712.3 474.3 711 471.5 L 712 469.5 L 708 467.5 L 710 466.5 L 704.5 456 L 703 455.5 Q 705.5 454 702 452.5 L 701 450.5 L 701 448.5 Q 701.8 446.3 699.5 447 L 699.5 449 Q 696.8 447.8 699 446.5 L 698.5 445 L 697 445.5 L 698 441.5 L 697 441.5 L 696.5 443 L 695 438.5 L 695.5 437 L 692 435.5 L 693 433.5 L 690 432.5 Q 689.3 430.3 691.5 431 L 690.5 429 L 689 429.5 L 690 427.5 L 688 427.5 L 687 423 Q 684.3 424.1 685 421.5 Q 681.5 420 684 418.5 L 683.5 417 L 682 417.5 L 683 414.5 L 682.5 413 L 681 413.5 L 682 410.5 L 680.5 411 L 678 409.5 L 677 407.5 L 677.5 404 Q 675.3 404.8 676 402.5 L 674 399 L 672 398.5 L 673 396.5 L 671 396.5 L 672 394.5 L 670.5 391 L 669.5 393 Q 669.8 388.8 667 387.5 L 668 385.5 L 666 385.5 L 667 382.5 L 666.5 381 L 665 381.5 L 664.5 380 Q 663.3 382.3 662 379.5 L 662 377.5 L 659 373.5 L 662 372.5 L 657 370.5 L 659 369.5 L 658 367 Q 655.3 368.1 656 365.5 L 654 362.5 L 654.5 361 L 653 361 L 653 357 Q 650.3 358.1 651 355.5 L 650 353 L 648 352.5 L 648.5 351 L 647 350.5 Q 649.3 349.3 646.5 348 L 645 347.5 L 647 346.5 L 643 341.5 L 643 339.5 L 714.5 242 L 716 242 Q 714.5 238.2 717.5 239 L 723.5 231 Z M 782 341 Q 780 344 783 343 L 782 341 Z M 685 419 L 686 421 Q 687 418 685 419 Z M 930 621 L 928 623 L 930 623 L 930 621 Z M 804 644 L 804 645 L 806 645 L 804 644 Z M 829 691 L 830 693 Q 831 690 829 691 Z M 975 707 Q 973 710 976 709 L 975 707 Z M 1086 917 Q 1084 920 1087 919 L 1086 917 Z " /><path fill="rgb(255,99,35)" stroke="rgb(255,99,35)" stroke-width="0" opacity="0.9921568627450981" d="M 641.5 342 L 640.5 344 L 641.5 342 Z " /><path fill="rgb(255,99,35)" stroke="rgb(255,99,35)" stroke-width="0" opacity="0.9921568627450981" d="M 638.5 346 L 637.5 348 L 638.5 346 Z " /><path fill="rgb(255,99,35)" stroke="rgb(255,99,35)" stroke-width="0" opacity="0.9921568627450981" d="M 703.5 457 L 704.5 459 L 703.5 457 Z " /><path fill="rgb(255,99,35)" stroke="rgb(255,99,35)" stroke-width="0" opacity="0.9921568627450981" d="M 847.5 729 L 848.5 731 L 847.5 729 Z " /><path fill="rgb(255,99,35)" stroke="rgb(255,99,35)" stroke-width="0" opacity="0.9921568627450981" d="M 764.5 752 L 765.5 754 L 764.5 752 Z " /><path fill="rgb(255,99,35)" stroke="rgb(255,99,35)" stroke-width="0" opacity="0.9921568627450981" d="M 782.5 769 L 783.5 771 L 782.5 769 Z " /><path fill="rgb(255,99,35)" stroke="rgb(255,99,35)" stroke-width="0" opacity="0.9921568627450981" d="M 816.5 801 L 817.5 803 L 816.5 801 Z " /><path fill="rgb(255,99,35)" stroke="rgb(255,99,35)" stroke-width="0" opacity="0.9921568627450981" d="M 301.5 811 L 300.5 813 L 301.5 811 Z " /><path fill="rgb(255,99,35)" stroke="rgb(255,99,35)" stroke-width="0" opacity="0.9921568627450981" d="M 299.5 814 L 298.5 816 L 299.5 814 Z " /><path fill="rgb(255,99,35)" stroke="rgb(255,99,35)" stroke-width="0" opacity="0.9921568627450981" d="M 834.5 818 L 835.5 820 L 834.5 818 Z " /><path fill="rgb(255,99,35)" stroke="rgb(255,99,35)" stroke-width="0" opacity="0.9921568627450981" d="M 293.5 822 L 292.5 824 L 293.5 822 Z " /><path fill="rgb(255,99,35)" stroke="rgb(255,99,35)" stroke-width="0" opacity="0.9921568627450981" d="M 288.5 829 L 289 830.5 L 285 837 Q 282.3 835.9 283 838.5 Q 280.3 839.3 281 843.5 L 283 842.5 L 282.5 841 Q 285.8 842.8 282 844.5 L 281 846.5 L 282.5 847 L 284.5 846 L 284.5 847 L 283 847.5 L 283 849.5 L 283.5 851 L 286 849.5 L 285.5 848 L 288.5 854 L 286 853 L 286.5 856 L 288.5 855 L 291 855.5 L 288 860.5 L 289.5 861 Q 290.8 858.8 292 861.5 L 290 861.5 Q 289.2 864.1 292.5 863 L 294 862.5 L 294 864.5 L 295 866.5 L 294.5 870 Q 296.8 869.3 296 871.5 L 298 871.5 L 297 875.5 L 299 874.5 L 298.5 873 Q 301.3 874.3 299 875.5 L 299.5 877 L 301 876.5 L 300 879.5 L 300.5 881 Q 301.8 878.8 303 881.5 L 302 882.5 L 304.5 886 L 303 886.5 L 305.5 888 Q 306.8 885.8 308 888.5 L 305 889.5 L 304 892.5 L 306 893 Q 304.5 889.3 307.5 890 L 307 891.5 L 308 893.5 L 307.5 895 Q 309.8 895.8 309 893.5 L 310 893.5 L 309 895.5 L 311 898.5 L 310.5 902 L 313.5 900 L 312 902.5 L 312.5 904 L 314 903.5 L 313 907.5 L 315 906.5 Q 312.8 905.3 315.5 904 L 315 907.5 L 315.5 909 L 318 907.5 Q 314.3 909.3 317.5 911 L 321 910.5 L 318 914.5 L 320.5 918 L 319 918.5 L 321.5 920 Q 322.8 917.8 324 920.5 L 321 921.5 L 327 923.5 L 325 924.5 L 326 926.5 L 326 928.5 Q 325.2 931.1 328.5 930 L 328.5 931 L 326 931.5 Q 330.7 931.3 332 934.5 L 330 935.5 L 332 936.5 L 331 939.5 L 331.5 941 L 334 939.5 Q 334.8 941.8 332.5 941 L 333.5 943 L 337 942.5 L 335 945.5 L 338 946.5 L 335 947.5 L 339.5 953 L 337 953.5 L 344 956.5 L 342.5 956 L 341 956.5 L 344 958.5 L 341 959.5 Q 342.3 962.3 343.5 960 L 349.5 956 L 353 958.5 L 351.5 959 L 348.5 957 L 157.5 1106 L 142.5 1117 L 139 1118 Q 140.1 1120.7 137.5 1120 L 107.5 1142 L 105 1141.5 L 105.5 1139 Q 107.8 1139.8 107 1137.5 L 105.5 1138 L 104 1137.5 L 107 1135.5 L 105.5 1135 L 104 1135.5 L 104.5 1134 L 102 1133.5 L 104 1132.5 L 101.5 1131 L 100 1131.5 L 100 1129.5 L 98 1126.5 L 100 1125.5 Q 98.7 1122.8 97.5 1125 L 96 1124.5 L 99 1122.5 Q 97.7 1119.8 96.5 1122 L 94.5 1123 L 95.5 1121 L 97 1120.5 L 94 1119.5 L 95 1117.5 L 93 1117.5 L 95 1114.5 L 92.5 1113 L 91 1113.5 L 92 1110.5 L 90.5 1109 L 89 1109.5 L 89 1107.5 L 89.5 1106 L 91 1106.5 L 90 1104.5 L 114.5 1070 Q 117.1 1070.8 116 1067.5 L 120 1061 Q 123 1062.3 122 1058.5 L 124 1055 Q 126.7 1056.1 126 1053.5 L 288.5 829 Z M 285 851 L 286 853 Q 287 850 285 851 Z M 292 864 L 293 866 Q 294 863 292 864 Z M 299 877 L 297 879 L 299 879 L 299 877 Z M 308 896 L 309 898 Q 310 895 308 896 Z M 315 909 L 313 911 L 315 911 L 315 909 Z M 323 923 L 323 925 L 325 924 L 323 923 Z M 325 925 L 323 927 L 325 927 L 325 925 Z M 324 928 L 325 930 Q 326 927 324 928 Z M 330 936 L 329 940 L 330 940 L 330 936 Z M 94 1110 L 93 1113 L 94 1113 L 94 1110 Z M 96 1117 L 96 1119 L 98 1118 L 96 1117 Z M 101 1126 Q 99 1129 102 1128 L 101 1126 Z M 103 1128 L 101 1130 L 103 1130 L 103 1128 Z M 108 1139 Q 106 1142 109 1141 L 108 1139 Z " /><path fill="rgb(255,99,35)" stroke="rgb(255,99,35)" stroke-width="0" opacity="0.9921568627450981" d="M 849.5 832 L 850.5 834 L 849.5 832 Z " /><path fill="rgb(255,99,35)" stroke="rgb(255,99,35)" stroke-width="0" opacity="0.9921568627450981" d="M 629.5 833 L 628.5 835 L 629.5 833 Z " /><path fill="rgb(255,99,35)" stroke="rgb(255,99,35)" stroke-width="0" opacity="0.9921568627450981" d="M 623.5 839 L 621.5 842 L 623.5 839 Z " /><path fill="rgb(255,99,35)" stroke="rgb(255,99,35)" stroke-width="0" opacity="0.9921568627450981" d="M 868.5 850 L 869.5 852 L 868.5 850 Z " /><path fill="rgb(255,99,35)" stroke="rgb(255,99,35)" stroke-width="0" opacity="0.9921568627450981" d="M 884.5 865 L 887.5 869 L 884.5 865 Z " /><path fill="rgb(255,99,35)" stroke="rgb(255,99,35)" stroke-width="0" opacity="0.9921568627450981" d="M 901.5 881 L 903.5 884 L 901.5 881 Z " /><path fill="rgb(255,99,35)" stroke="rgb(255,99,35)" stroke-width="0" opacity="0.9921568627450981" d="M 917.5 896 L 920.5 900 L 917.5 896 Z " /><path fill="rgb(255,99,35)" stroke="rgb(255,99,35)" stroke-width="0" opacity="0.9921568627450981" d="M 934.5 912 L 939.5 918 L 934.5 912 Z " /><path fill="rgb(255,99,35)" stroke="rgb(255,99,35)" stroke-width="0" opacity="0.9921568627450981" d="M 322.5 916 L 323.5 918 L 322.5 916 Z " /><path fill="rgb(255,99,35)" stroke="rgb(255,99,35)" stroke-width="0" opacity="0.9921568627450981" d="M 1088.5 920 L 1089.5 922 L 1088.5 920 Z " /><path fill="rgb(255,99,35)" stroke="rgb(255,99,35)" stroke-width="0" opacity="0.9921568627450981" d="M 338.5 948 L 339.5 950 L 338.5 948 Z " /><path fill="rgb(255,99,35)" stroke="rgb(255,99,35)" stroke-width="0" opacity="0.9921568627450981" d="M 510.5 951 L 507.5 955 L 510.5 951 Z " /><path fill="rgb(255,99,35)" stroke="rgb(255,99,35)" stroke-width="0" opacity="0.9921568627450981" d="M 503.5 958 L 501.5 961 L 503.5 958 Z " /><path fill="rgb(255,99,35)" stroke="rgb(255,99,35)" stroke-width="0" opacity="0.9921568627450981" d="M 354.5 959 L 357 962.5 L 354 960.5 L 354.5 959 Z " /><path fill="rgb(255,99,35)" stroke="rgb(255,99,35)" stroke-width="0" opacity="0.9921568627450981" d="M 364.5 968 L 366.5 971 L 364.5 968 Z " /><path fill="rgb(255,99,35)" stroke="rgb(255,99,35)" stroke-width="0" opacity="0.9921568627450981" d="M 375.5 977 L 376.5 979 L 375.5 977 Z " /><path fill="rgb(255,99,35)" stroke="rgb(255,99,35)" stroke-width="0" opacity="0.9921568627450981" d="M 380.5 981 L 382.5 984 L 380.5 981 Z " /><path fill="rgb(255,99,35)" stroke="rgb(255,99,35)" stroke-width="0" opacity="0.9921568627450981" d="M 386.5 986 L 387.5 988 L 386.5 986 Z " /><path fill="rgb(255,99,35)" stroke="rgb(255,99,35)" stroke-width="0" opacity="0.9921568627450981" d="M 391.5 990 L 392.5 992 L 391.5 990 Z " /><path fill="rgb(255,99,35)" stroke="rgb(255,99,35)" stroke-width="0" opacity="0.9921568627450981" d="M 396.5 994 L 397.5 996 L 396.5 994 Z " /><path fill="rgb(255,99,35)" stroke="rgb(255,99,35)" stroke-width="0" opacity="0.9921568627450981" d="M 402.5 999 L 403.5 1001 L 402.5 999 Z " /><path fill="rgb(255,99,35)" stroke="rgb(255,99,35)" stroke-width="0" opacity="0.9921568627450981" d="M 407.5 1003 L 408.5 1005 L 407.5 1003 Z " /><path fill="rgb(255,99,35)" stroke="rgb(255,99,35)" stroke-width="0" opacity="0.9921568627450981" d="M 417.5 1011 L 418.5 1013 L 417.5 1011 Z " /><path fill="rgb(255,99,35)" stroke="rgb(255,99,35)" stroke-width="0" opacity="0.9921568627450981" d="M 422.5 1015 L 423.5 1017 L 422.5 1015 Z " /><path fill="rgb(255,99,35)" stroke="rgb(255,99,35)" stroke-width="0" opacity="0.9921568627450981" d="M 427.5 1019 L 428.5 1021 L 427.5 1019 Z " /><path fill="rgb(255,99,35)" stroke="rgb(255,99,35)" stroke-width="0" opacity="0.9921568627450981" d="M 88.5 1111 L 89.5 1113 L 88.5 1111 Z " /><path fill="rgb(255,65,18)" stroke="rgb(255,65,18)" stroke-width="0" opacity="0.9921568627450981" d="M 642.5 341 Q 644.3 344.1 646 342.5 L 646 344.5 L 648 347.5 L 647.5 351 L 649.5 350 L 648.5 353 Q 650.8 352.3 650 354.5 L 651 354.5 L 651.5 353 L 652 354.5 L 651 357 L 653 357 L 653 361 L 654.5 361 Q 657.3 362.3 655 363.5 L 655.5 365 L 657 364.5 L 656 367 Q 658.7 365.9 658 368.5 L 660 368.5 L 659.5 372 L 662 372.5 L 659 373.5 L 663 375.5 L 662 377.5 L 664 377.5 Q 661.8 378.8 664.5 380 L 666 379.5 L 665 381.5 L 667 381.5 L 666 383.5 L 669 387.5 L 669 389.5 L 669.5 393 L 670.5 391 L 672.5 396 L 674 395.5 L 672 398.5 L 674 399 L 674.5 401 Q 675.8 398.8 677 401.5 L 676 404 L 678 404.5 L 677 405.5 L 680 408.5 L 679 410.5 L 680.5 411 L 682 410.5 L 681 413.5 L 683 413.5 L 682 415.5 L 684 419 Q 686.7 417.9 686 420.5 Q 689.5 422 687 423.5 L 688.5 428 L 690 427.5 L 692 430.5 L 690 431 L 690.5 433 Q 691.8 430.8 693 433.5 L 692 435.5 L 693.5 436 L 695 435.5 L 694.5 437 L 696 437.5 L 695 439.5 L 697 439.5 L 696 442.5 L 697 442.5 L 697.5 441 L 698 443.5 L 697 445.5 L 699 445.5 L 701 448.5 Q 704.5 450 702 451.5 L 704 454.5 L 703.5 456 L 706 457.5 Q 705.3 461.3 707.5 462 L 709 461.5 L 708 463.5 L 710.5 467 L 712 467.5 L 710 468.5 L 712 469.5 L 711 471.5 L 714 472.5 L 714.5 476 L 716 475.5 L 715 479 Q 717.7 477.9 717 480.5 Q 720.5 482 718 483.5 Q 717.3 485.8 719.5 485 L 721 484.5 L 720 485.5 Q 723.1 487.3 721.5 489 L 723 489.5 L 722.5 491 L 725 491.5 L 722 492.5 L 725 493.5 Q 724.3 495.8 726.5 495 L 726.5 496 Q 724.3 495.3 725 497.5 L 727 497.5 L 726.5 499 Q 729.1 498.2 728 501.5 L 730 501.5 L 729 503.5 L 731.5 507 L 733 507.5 L 732.5 509 Q 734.8 508.3 734 510.5 L 736 513.5 L 735.5 515 Q 737.8 514.3 737 516.5 Q 734.7 517.8 737.5 519 Q 738.8 516.8 740 519.5 L 737 520.5 L 739 521 Q 737.9 523.7 740.5 523 L 741 525.5 Q 740.3 527.8 742.5 527 L 742.5 529 L 745 529.5 L 743 530.5 L 744.5 534 L 746 533.5 Q 745.3 535.8 747.5 535 L 747.5 539 L 749 539.5 L 748.5 541 Q 750.8 540.3 750 542.5 L 751 545 L 753 545.5 Q 750.5 547 754 548.5 L 756 551.5 L 754 551.5 Q 753.2 554.1 756.5 553 L 756.5 554 L 755 554.5 L 759 557.5 L 757 557.5 L 757 559 L 759 559 Q 757.9 561.7 760.5 561 L 760.5 563 L 763 564.5 L 762 567 L 764 567.5 Q 761.8 568.8 764.5 570 L 766 569.5 L 764 572.5 L 765.5 573 L 767 572.5 L 766 574.5 L 768 574.5 L 767 577 L 769 577.5 Q 766.8 578.7 769.5 580 L 771 579.5 L 770 582 Q 772.7 580.9 772 583.5 L 773 586 L 775 586.5 L 773 587.5 L 776 589.5 L 775.5 591 L 777 591.5 L 776.5 593 Q 779.1 592.2 778 595.5 L 781 597.5 L 779 598.5 L 781 599 L 782 601.5 L 781 603.5 L 783 603.5 L 784 607 Q 786.7 605.9 786 608.5 L 784.5 611 L 787.5 610 L 786 612.5 L 788 614.5 L 789 618 L 792 619.5 L 791.5 623 L 793 623.5 L 792.5 625 Q 794.8 624.3 794 626.5 L 795 629 L 797 629.5 L 795 630.5 L 797 631 L 798.5 635 L 800 634.5 L 799 636.5 L 801 636.5 L 800 639 Q 802.7 637.9 802 640.5 Q 805.1 642.3 803.5 644 L 806 644.5 L 803 645.5 L 807 647.5 L 806 649.5 L 808 649.5 Q 805.5 651 809 652.5 L 810 654.5 L 809 656.5 L 812 657.5 L 811 659.5 Q 813.8 660.8 813.5 665 L 814.5 663 L 816.5 668 L 818 667.5 L 816 670.5 L 818 671 L 818.5 673 L 820 672.5 L 820 674.5 Q 819.3 676.8 821.5 676 Q 819.9 677.8 823 679.5 L 822 680.5 L 822.5 682 L 824 681.5 Q 821.8 682.8 824.5 684 L 825.5 682 L 826 683.5 L 825 685.5 L 827 685.5 L 826 687.5 L 828 691 Q 830.7 689.9 830 692.5 Q 833.5 694 831 695.5 L 832.5 700 L 834 699.5 L 836 702.5 L 834 703 L 834.5 705 Q 835.8 702.8 837 705.5 L 836 708 L 839 709.5 L 839.5 712 L 841 711.5 L 840 714.5 L 842 714.5 L 841 717.5 L 843 717.5 L 842 719.5 L 847 722.5 L 846 724.5 Q 849.1 726.2 847.5 728 L 850 729.5 Q 849.3 733.3 851.5 734 L 853 733.5 L 852 735.5 L 854.5 739 L 856 739.5 L 854 740.5 L 856 741.5 L 855 743.5 L 858 744.5 L 859 751 Q 861.7 749.9 861 752.5 Q 864.5 754 862 755.5 L 863.5 758 L 866 759.5 L 865.5 761 L 867 761.5 L 866.5 763 L 868 763.5 L 866 764.5 L 869 765.5 Q 868.3 767.8 870.5 767 L 870.5 768 Q 868.3 767.3 869 769.5 L 871 769.5 L 870.5 771 Q 873.1 770.2 872 773.5 L 871.5 775 L 874 776.5 L 875.5 779 L 877 779.5 L 876.5 781 Q 878.8 780.3 878 782.5 L 878.5 784 L 877 783.5 L 881 788.5 Q 878.8 789.7 881.5 791 L 883 790.5 L 881.5 793 L 883 793.5 L 882.5 795 L 885 795.5 L 885 797.5 Q 884.3 799.8 886.5 799 L 886.5 800 Q 884.3 799.3 885 801.5 L 887 801.5 L 886.5 803 Q 889.1 802.2 888 805.5 L 890 805.5 L 889 807.5 L 890.5 810 L 892 809.5 L 891.5 811 L 893 811.5 L 892.5 813 Q 894.8 812.3 894 814.5 L 895 817 L 897 817.5 Q 894.5 819 898 820.5 L 900 823.5 L 898 823.5 Q 897.2 826.1 900.5 825 L 900.5 826 L 899 826.5 L 901 827 L 901 831 L 903 831 Q 901.9 833.7 904.5 833 L 904.5 835 L 906 835.5 L 904 836.5 L 906 837 Q 904.9 839.7 907.5 839 L 908.5 842 L 910 841.5 L 908 844.5 L 909.5 845 L 911 844.5 L 910 846.5 L 912 846.5 L 911 849 L 913 849.5 Q 910.5 851 914 852.5 L 917 858 L 915 858.5 L 920 861.5 L 919.5 863 L 921 863.5 L 919 864.5 L 922 865 Q 921.3 868.4 924 869.5 L 923.5 871 Q 925.8 870.3 925 872.5 L 925 874.5 L 925.5 876 L 927 875.5 L 928 878.5 Q 925.8 879.8 928.5 881 L 929.5 879 L 930 880.5 L 928.5 883 L 931 883.5 L 930 886 Q 932.7 884.9 932 887.5 L 933 890 L 935 890.5 L 933 891.5 L 936 893.5 L 935.5 895 L 937 895.5 L 936.5 897 Q 938.8 896.3 938 898.5 L 939 901 L 941 901.5 L 939 902.5 L 941 903 L 943.5 909 L 945 908.5 L 944 911 Q 947 909.8 946 913.5 L 945.5 915 L 947.5 914 L 947.5 916 L 949 916.5 L 947 917.5 L 950 918.5 L 950 920.5 L 952 923.5 L 951.5 925 L 954 926.5 L 951.5 928 L 951.5 927 L 953 926.5 L 945 923 Q 946.1 920.3 943.5 921 L 931 909.5 Q 931.8 907.3 929.5 908 L 901.5 881 L 900 881 Q 901.1 878.3 898.5 879 L 868.5 850 L 867 850 Q 868.1 847.3 865.5 848 L 852.5 835 L 851 835 L 849.5 832 L 736.5 727 L 734 728.5 L 736.5 725 L 738 725.5 L 736.5 723 L 733 720.5 L 732 718.5 L 734 718.5 Q 734.8 716.3 732.5 717 L 732.5 715 L 730 713.5 L 729 711.5 L 730 709.5 L 727 710.5 L 728 707 L 725 705.5 L 724 703.5 L 725 701.5 L 722 700.5 L 725 699.5 L 722 698.5 L 722.5 697 L 719 695.5 L 721 694.5 L 718 693 L 717 690.5 L 717 688.5 Q 717.8 686.3 715.5 687 L 714 687.5 L 717 683.5 L 715.5 683 L 714 683.5 Q 714.8 679.8 712.5 679 L 711 679.5 L 712 675 L 710 675.5 L 710.5 677 L 708 675.5 L 710 674.5 L 708 671.5 L 709 669.5 L 706 668.5 Q 706.8 664.8 704.5 664 L 703 663.5 Q 705.5 662 702 660.5 L 701 658.5 L 701 656.5 Q 701.8 654.3 699.5 655 L 698 655.5 L 699 653.5 L 697 653.5 L 698 650.5 L 696 650.5 Q 698.5 649 695 647.5 L 696 645.5 L 692 643.5 L 694 642.5 L 690.5 637 L 688 638.5 Q 690.8 637.8 690 633.5 L 689 633.5 L 688.5 635 L 687.5 633 L 689 632.5 L 687 631.5 Q 689.5 630 686 628.5 L 682 623.5 L 683 621.5 L 681 621.5 L 682 618.5 L 680 618.5 L 678.5 615 L 677 615.5 L 677.5 612 Q 675.3 612.8 676 610.5 L 674 607 L 672 606.5 L 674 603.5 L 671 604.5 L 672 602.5 L 671 599 Q 668.3 600.1 669 597.5 Q 665.5 596 668 594.5 L 667.5 593 L 666 593.5 L 667 590.5 L 666.5 589 L 665 589.5 L 664.5 588 Q 663.3 590.3 662 587.5 L 662 585.5 L 659 581.5 L 662 580.5 L 660 580 L 658 575 L 656 574.5 L 657 572.5 L 655 572.5 L 656 570.5 L 654 570.5 L 655 567.5 L 654 567.5 L 653.5 569 L 653 565.5 L 650 561 L 648 560.5 L 648.5 559 L 647 558.5 L 649 557.5 L 646 555.5 L 646 553.5 L 642 548.5 L 642.5 547 L 641 546.5 L 643 545.5 L 642 543 Q 639.3 544.1 640 541.5 L 638.5 539 L 637 539.5 L 638 537.5 L 637 535 L 635 534.5 L 637 533.5 L 635 533 L 634 529 L 632 528.5 L 632.5 527 L 631 526.5 Q 633.3 525.3 630.5 524 L 629 523.5 L 631 522.5 L 629 522 L 628.5 520 Q 627.3 522.3 626 519.5 L 628 519.5 L 626 516.5 L 624 514.5 L 624 510.5 L 622.5 507 L 620 508.5 L 621 506.5 L 619 506.5 L 619.5 504 L 621 504.5 Q 621.8 502.3 619.5 503 L 616 500.5 L 618 499.5 L 616 498.5 L 618 497.5 L 615 496.5 L 617 495.5 L 615 494.5 L 615.5 493 L 611 490.5 L 613 490 L 612.5 488 Q 611.3 490.3 610 487.5 L 610 485.5 L 608 482.5 L 608.5 481 L 606.5 482 L 605.5 480 L 607 480.5 L 606 477 L 604 476.5 L 605 474.5 L 603 474.5 L 603.5 471 L 601.5 472 L 602 470.5 Q 602.8 468.3 600.5 469 L 600.5 468 L 602 467.5 L 600 466.5 L 600.5 465 Q 597.9 465.7 599 463 L 597 463 L 597 461.5 L 596.5 459 Q 594.3 459.8 595 457.5 L 594 455.5 L 594 453.5 L 592 450.5 L 592.5 449 L 590.5 450 L 588 446.5 L 590 446.5 Q 590.8 444.3 588.5 445 L 588.5 443 L 586 441.5 L 585 439.5 L 586 437.5 L 583 438.5 L 584 435 L 581 433.5 L 582.5 431 L 580.5 432 L 581 430.5 L 580.5 429 L 577.5 431 L 580 427.5 L 642.5 341 Z M 686 421 Q 684 424 687 423 L 686 421 Z M 625 511 L 626 513 Q 627 510 625 511 Z M 830 693 Q 828 696 831 695 L 830 693 Z " /><path fill="rgb(255,65,18)" stroke="rgb(255,65,18)" stroke-width="0" opacity="0.9921568627450981" d="M 688.5 424 L 689.5 426 L 688.5 424 Z " /><path fill="rgb(255,65,18)" stroke="rgb(255,65,18)" stroke-width="0" opacity="0.9921568627450981" d="M 576.5 432 L 574.5 435 L 576.5 432 Z " /><path fill="rgb(255,65,18)" stroke="rgb(255,65,18)" stroke-width="0" opacity="0.9921568627450981" d="M 570.5 440 L 569.5 442 L 570.5 440 Z " /><path fill="rgb(255,65,18)" stroke="rgb(255,65,18)" stroke-width="0" opacity="0.9921568627450981" d="M 459.5 593 L 458.5 595 L 459.5 593 Z " /><path fill="rgb(255,65,18)" stroke="rgb(255,65,18)" stroke-width="0" opacity="0.9921568627450981" d="M 451.5 604 L 450.5 606 L 451.5 604 Z " /><path fill="rgb(255,65,18)" stroke="rgb(255,65,18)" stroke-width="0" opacity="0.9921568627450981" d="M 446.5 611 L 445.5 613 L 446.5 611 Z " /><path fill="rgb(255,65,18)" stroke="rgb(255,65,18)" stroke-width="0" opacity="0.9921568627450981" d="M 441.5 618 L 440.5 620 L 441.5 618 Z " /><path fill="rgb(255,65,18)" stroke="rgb(255,65,18)" stroke-width="0" opacity="0.9921568627450981" d="M 438.5 622 L 438 623.5 L 429 638.5 L 433 638.5 L 430 642.5 L 432.5 646 L 431 646.5 L 433.5 648 Q 434.7 645.8 436 648.5 L 433 649 L 433.5 652 L 434 650 L 440 652.5 L 438.5 652 L 437 652.5 L 438 654.5 L 438 656.5 Q 437.2 659.1 440.5 658 L 440.5 659 L 438 659.5 L 438.5 662 L 441.5 660 L 443.5 663 L 442 663.5 L 444.5 665 L 446 664.5 L 443 668.5 L 448 665.5 L 446 669 L 444 669.5 L 445.5 671 L 449 670.5 L 447 673.5 L 451 674.5 L 450 675.5 L 453.5 680 L 450.5 678 L 451.5 681 L 449 681.5 L 456 684.5 L 454.5 684 L 453 684.5 L 456 686.5 L 453 687.5 L 454 690 Q 457.8 688.5 457 691.5 L 459.5 695 L 458 695.5 L 460.5 697 L 462 696.5 L 459 700.5 L 463.5 697 L 465 698.5 L 462 699.5 Q 462.8 701.8 460.5 701 L 461.5 703 L 467 700.5 L 463 705.5 L 467 706.5 L 466 707.5 L 469.5 712 L 466.5 710 L 467.5 713 L 465 713.5 L 472 716.5 L 470.5 716 L 469 716.5 L 472.5 718 L 474 717.5 L 469 719.5 L 473.5 720 L 475 719.5 L 475 721.5 L 477 724.5 L 474 722.5 Q 474.9 719.5 470.5 721 L 470.5 722 Q 473.8 720.9 473 723.5 L 475.5 727 L 474 727.5 L 476.5 729 L 477.5 726 L 478 728.5 L 477.5 730 L 479.5 729 L 480.5 731 Q 479.3 728.8 478 731.5 L 478.5 733 L 480 732.5 L 479 734.5 L 482.5 732 L 484 733.5 Q 482 731.8 480 735.5 L 480.5 737 L 479 737.5 L 482.5 738 L 482 736.5 L 482.5 735 L 484 737.5 L 482 739.5 L 486.5 744 L 487.5 742 L 488 743.5 L 487 746 L 489 746.5 L 487 747.5 L 487.5 749 L 486 749.5 L 489 750 L 489.5 748 L 490 749.5 L 485 751.5 L 489.5 752 L 492.5 750 L 492.5 751 L 491 751.5 L 491 753.5 L 493.5 757 L 495 756.5 L 493 761.5 L 494.5 762 Q 495.8 759.7 497 762.5 L 496 764.5 L 497.5 765 Q 498.7 762.8 500 765.5 L 498 765.5 L 500 769.5 Q 495.7 771.8 500.5 774 L 502 773.5 Q 499.8 774.8 502.5 776 L 503.5 774 L 504.5 776 L 506 775.5 L 503 776.5 Q 502.3 778.8 504.5 778 L 504.5 779 L 503 779.5 L 503.5 781 L 502 781.5 L 505 782 L 505.5 780 L 506 781.5 L 505.5 783 L 508.5 782 L 508.5 783 L 507 783.5 L 507 785.5 L 509.5 789 L 511 788.5 L 509 793.5 L 510.5 794 Q 511.8 791.8 513 794.5 L 512 796.5 L 513.5 797 Q 514.8 794.8 516 797.5 L 514 797.5 L 516 801.5 L 515.5 803 L 518 802.5 L 517.5 801 L 519 802.5 L 517 806.5 L 518.5 808 L 519.5 806 L 520.5 808 L 522 807.5 L 519 808.5 L 521 811.5 L 523 810.5 L 522.5 809 Q 525.8 810.8 522 812.5 L 521 814.5 L 522.5 815 L 524.5 814 L 524.5 815 L 523 815.5 L 523 817.5 L 523.5 819 L 526 817.5 L 525.5 816 L 528.5 822 L 526 821 L 525 825.5 L 527 826 Q 525.5 822.3 528.5 823 L 531 823.5 L 528 824.5 L 529 827.5 L 528.5 829 L 530.5 828 L 531.5 830 L 530 829.5 L 532.5 834 Q 533.8 831.7 535 834.5 L 534.5 838 Q 536.8 837.3 536 839.5 L 538 839.5 L 535 840.5 L 537 843.5 L 539 842.5 L 538.5 841 Q 541.8 842.8 538 844.5 L 537 846.5 L 538.5 847 L 540.5 846 L 540.5 847 L 539 847.5 L 539 849.5 L 539.5 851 L 542 849.5 L 541.5 848 L 544.5 854 L 542 853 L 542.5 856 L 544.5 855 L 548 856.5 L 544 856.5 L 545 859.5 L 544.5 861 L 546.5 860 L 547.5 862 L 546 861.5 Q 545.2 864.1 548.5 863 L 550 862.5 L 550 864.5 L 551 866.5 L 550.5 870 L 553.5 868 L 552 870.5 L 552.5 872 L 554 871.5 L 553 875.5 L 555 874.5 Q 552.8 873.3 555.5 872 L 556 874.5 L 554 876.5 L 553 878.5 L 555 879 L 557.5 875 L 556.5 879 L 555 879.5 L 559 881.5 L 558 882.5 L 560.5 886 L 559 886.5 L 561.5 888 Q 562.8 885.8 564 888.5 L 561 889.5 L 560 892.5 L 562 893 Q 560.3 888.9 564.5 890 L 567 891.5 L 565.5 892 L 563 891 L 564 893.5 L 562 893.5 Q 561.2 896.5 565 895 L 565.5 893 L 566.5 894 L 570.5 890 L 577.5 884 L 516.5 946 Q 514.3 945.3 515 947.5 L 507 954.5 L 504.5 958 L 436.5 1025 L 433.5 1025 L 364.5 968 L 360 966 Q 361.1 963.3 358.5 964 L 354.5 959 L 353 959.5 Q 353.8 957.3 351.5 958 L 348.5 956 L 342.5 961 L 341.5 959 L 344 958.5 L 341.5 957 Q 339.8 960.8 338 957.5 L 341 956.5 L 339 955.5 L 341 954.5 L 336 952.5 L 336.5 951 L 334.5 952 L 334.5 949 L 336.5 950 L 334.5 947 L 333 947.5 L 334 944.5 L 333.5 943 L 332 943.5 Q 334.3 942.3 331.5 941 L 330.5 943 L 330 941.5 L 332 938.5 L 331.5 936 Q 328.5 935.1 330 939.5 L 329 939.5 L 328 935.5 L 330 932.5 L 326.5 932 L 326.5 933 L 328 933.5 L 326 934.5 L 326.5 936 L 325 934.5 L 326.5 931 L 329 930.5 L 326 930 L 325.5 928 L 323.5 931 L 323.5 928 L 325 927.5 L 322 925.5 L 323 923 L 325 922.5 L 320 920.5 L 320.5 919 L 318.5 920 L 318.5 917 L 320.5 918 L 318.5 915 L 317 915.5 Q 319.3 914.3 316.5 913 L 315.5 915 L 315 913.5 L 317 910.5 L 315 909.5 Q 315.8 911.8 313.5 911 L 312 911.5 L 315 907.5 L 313 907.5 L 312 902 L 310 902.5 L 310.5 904 L 309.5 901 L 308 900.5 L 310 899.5 L 307 898.5 L 307.5 896 L 309 895.5 L 304 892.5 L 305 889.5 L 304.5 887 L 302.5 888 L 301.5 885 L 300 885.5 L 302 882.5 L 300 881.5 L 299.5 883 L 298 880.5 L 300 880.5 L 301 878.5 L 299 877.5 Q 299.8 879.8 297.5 879 L 296 879.5 L 299 875.5 L 297 875.5 L 296.5 872 L 295 874.5 L 295.5 876 Q 292.8 874.8 295 873.5 L 293 870.5 L 293.5 869 L 292 868.5 L 294 867.5 L 291 866.5 L 291.5 864 L 293 863.5 L 290 863 L 288.5 866 L 289 864.5 L 290 861 L 288 860.5 L 289 857.5 L 288.5 855 L 286.5 856 L 285.5 853 L 284 853.5 Q 286.5 852 283 850.5 L 282 848.5 L 282.5 847 L 280.5 848 L 282 845.5 L 281.5 844 Q 280.3 846.3 279 843.5 L 281 843.5 L 281 840.5 L 283 837 Q 285.7 838.1 285 835.5 L 311 797.5 L 438.5 622 Z M 435 651 L 435 653 L 437 652 L 435 651 Z M 437 653 L 435 655 L 437 655 L 437 653 Z M 436 656 L 437 658 Q 438 655 436 656 Z M 442 664 L 441 668 L 442 668 L 442 664 Z M 448 675 L 450 678 L 450 677 L 448 675 Z M 458 696 L 457 700 L 458 700 L 458 696 Z M 465 707 L 464 709 L 466 710 L 465 707 Z M 477 730 L 475 732 L 477 732 L 477 730 Z M 481 739 Q 479 742 482 741 L 481 739 Z M 483 742 L 484 744 Q 485 741 483 742 Z M 484 744 L 484 746 L 487 747 L 486 746 Q 487 743 484 744 Z M 489 753 L 489 756 L 491 757 L 490 755 Q 491 752 489 753 Z M 492 757 L 491 760 L 493 761 Q 494 756 492 757 Z M 496 762 L 494 765 L 496 764 L 496 762 Z M 497 767 L 497 769 L 495 770 L 499 770 L 498 769 Q 499 766 497 767 Z M 497 771 Q 495 774 498 773 L 497 771 Z M 499 774 L 500 776 Q 501 773 499 774 Z M 500 776 L 500 778 L 502 777 L 500 776 Z M 503 783 L 503 784 L 505 784 L 503 783 Z M 506 787 L 507 789 Q 508 786 506 787 Z M 508 789 L 507 792 L 509 793 Q 510 788 508 789 Z M 512 794 L 510 797 L 512 796 L 512 794 Z M 513 799 L 514 801 Q 515 798 513 799 Z M 516 804 Q 516 808 518 805 L 516 804 Z M 516 808 L 516 810 L 518 809 L 516 808 Z M 521 812 L 518 814 L 521 814 L 521 812 Z M 522 819 L 523 821 Q 524 818 522 819 Z M 525 819 L 526 821 Q 527 818 525 819 Z M 529 831 L 530 833 Q 531 830 529 831 Z M 532 836 L 532 837 L 534 837 L 532 836 Z M 532 840 L 532 842 L 534 841 L 532 840 Z M 287 851 Q 285 854 288 853 L 287 851 Z M 541 851 L 542 853 Q 543 850 541 851 Z M 548 864 L 549 866 Q 550 863 548 864 Z M 295 870 L 296 872 Q 297 869 295 870 Z M 303 883 L 302 885 L 305 886 L 303 883 Z M 306 890 L 307 893 L 308 891 L 306 890 Z M 312 900 L 312 902 L 314 901 L 312 900 Z M 323 919 L 321 921 L 324 921 L 323 919 Z M 331 933 Q 329 936 332 935 L 331 933 Z M 334 939 L 332 941 L 334 941 L 334 939 Z M 336 946 L 336 947 L 338 947 L 336 946 Z M 339 951 L 337 953 L 340 953 L 339 951 Z " /><path fill="rgb(255,65,18)" stroke="rgb(255,65,18)" stroke-width="0" opacity="0.9921568627450981" d="M 683.5 627 L 684.5 629 L 683.5 627 Z " /><path fill="rgb(255,65,18)" stroke="rgb(255,65,18)" stroke-width="0" opacity="0.9921568627450981" d="M 434.5 644 L 437.5 648 L 434.5 644 Z " /><path fill="rgb(255,65,18)" stroke="rgb(255,65,18)" stroke-width="0" opacity="0.9921568627450981" d="M 443.5 659 L 444.5 661 L 443.5 659 Z " /><path fill="rgb(255,65,18)" stroke="rgb(255,65,18)" stroke-width="0" opacity="0.9921568627450981" d="M 458.5 689 L 461 692.5 L 458 690.5 L 458.5 689 Z " /><path fill="rgb(255,65,18)" stroke="rgb(255,65,18)" stroke-width="0" opacity="0.9921568627450981" d="M 730.5 732 L 729.5 734 L 730.5 732 Z " /><path fill="rgb(255,65,18)" stroke="rgb(255,65,18)" stroke-width="0" opacity="0.9921568627450981" d="M 493.5 752 Q 496.5 753.5 493.5 755 L 493.5 752 Z " /><path fill="rgb(255,65,18)" stroke="rgb(255,65,18)" stroke-width="0" opacity="0.9921568627450981" d="M 501.5 766 L 500.5 768 L 501.5 766 Z " /><path fill="rgb(255,65,18)" stroke="rgb(255,65,18)" stroke-width="0" opacity="0.9921568627450981" d="M 506.5 777 L 507.5 779 L 506.5 777 Z " /><path fill="rgb(255,65,18)" stroke="rgb(255,65,18)" stroke-width="0" opacity="0.9921568627450981" d="M 509.5 784 Q 512.5 785.5 509.5 787 L 509.5 784 Z " /><path fill="rgb(255,65,18)" stroke="rgb(255,65,18)" stroke-width="0" opacity="0.9921568627450981" d="M 511.5 791 L 513.5 792 L 515 791.5 Q 513.8 794.2 512.5 792 L 511.5 791 Z " /><path fill="rgb(255,65,18)" stroke="rgb(255,65,18)" stroke-width="0" opacity="0.9921568627450981" d="M 517.5 798 L 516.5 800 L 517.5 798 Z " /><path fill="rgb(255,65,18)" stroke="rgb(255,65,18)" stroke-width="0" opacity="0.9921568627450981" d="M 649.5 813 L 647.5 816 L 649.5 813 Z " /><path fill="rgb(255,65,18)" stroke="rgb(255,65,18)" stroke-width="0" opacity="0.9921568627450981" d="M 644.5 818 L 639.5 824 L 644.5 818 Z " /><path fill="rgb(255,65,18)" stroke="rgb(255,65,18)" stroke-width="0" opacity="0.9921568627450981" d="M 636.5 826 L 630.5 833 L 636.5 826 Z " /><path fill="rgb(255,65,18)" stroke="rgb(255,65,18)" stroke-width="0" opacity="0.9921568627450981" d="M 533.5 830 L 532.5 832 L 533.5 830 Z " /><path fill="rgb(255,65,18)" stroke="rgb(255,65,18)" stroke-width="0" opacity="0.9921568627450981" d="M 627.5 835 L 624.5 839 L 627.5 835 Z " /><path fill="rgb(255,65,18)" stroke="rgb(255,65,18)" stroke-width="0" opacity="0.9921568627450981" d="M 544.5 846 L 543.5 848 L 544.5 846 Z " /><path fill="rgb(255,65,18)" stroke="rgb(255,65,18)" stroke-width="0" opacity="0.9921568627450981" d="M 287.5 858 L 286.5 860 L 287.5 858 Z " /><path fill="rgb(255,65,18)" stroke="rgb(255,65,18)" stroke-width="0" opacity="0.9921568627450981" d="M 558.5 878 L 561 878.5 Q 558.9 881.8 558.5 878 Z " /><path fill="rgb(255,65,18)" stroke="rgb(255,65,18)" stroke-width="0" opacity="0.9921568627450981" d="M 580.5 881 L 579.5 883 L 580.5 881 Z " /><path fill="rgb(255,65,18)" stroke="rgb(255,65,18)" stroke-width="0" opacity="0.9921568627450981" d="M 562.5 884 L 563.5 886 L 562.5 884 Z " /><path fill="rgb(255,65,18)" stroke="rgb(255,65,18)" stroke-width="0" opacity="0.9921568627450981" d="M 311.5 905 L 310.5 907 L 311.5 905 Z " /><path fill="rgb(255,65,18)" stroke="rgb(255,65,18)" stroke-width="0" opacity="0.9921568627450981" d="M 321.5 923 L 320.5 925 L 321.5 923 Z " /><path fill="rgb(255,65,18)" stroke="rgb(255,65,18)" stroke-width="0" opacity="0.9921568627450981" d="M 337.5 955 L 336.5 957 L 337.5 955 Z " /><path fill="rgb(255,65,18)" stroke="rgb(255,65,18)" stroke-width="0" opacity="0.9921568627450981" d="M 339.5 960 Q 342.5 961.5 339.5 963 L 339.5 960 Z " /><path fill="rgb(255,131,51)" stroke="rgb(255,131,51)" stroke-width="0" opacity="0.9764705882352941" d="M 725.5 226 L 729 228.5 L 1451 1226 L 1439.5 1217 L 1179.5 981 L 1174.5 977 L 1172.5 977 L 1115.5 1001 L 1115.5 1000 L 1126 996 L 1124 991.5 L 1125 989.5 L 1122 988.5 L 1124 987.5 L 1122 986.5 L 1122.5 985 L 1119 983.5 L 1121 982.5 L 1118 981 L 1117 978.5 L 1117 976.5 L 1115 973.5 L 1116 971.5 L 1114 971.5 L 1113.5 968 Q 1112.3 970.3 1111 967.5 L 1112 965.5 L 1108 963.5 L 1110 962.5 L 1104.5 952 L 1103 951.5 Q 1105.5 950 1102 948.5 L 1101 946.5 L 1101 944.5 Q 1101.8 942.3 1099.5 943 L 1099.5 945 Q 1096.8 943.8 1099 942.5 L 1098.5 941 L 1097 941.5 L 1098 938.5 L 1096 938.5 L 1095 934.5 L 1095.5 933 L 1092 931.5 L 1093 929.5 L 1090 928.5 Q 1089.3 926.3 1091.5 927 L 1090.5 925 L 1089 925.5 L 1090 923.5 L 1088 923.5 L 1087 919 Q 1084.3 920.1 1085 917.5 Q 1081.5 916 1084 914.5 L 1083.5 913 L 1082 913.5 L 1083 910.5 L 1082.5 909 L 1081 909.5 L 1082 906.5 L 1080.5 907 L 1078 905.5 L 1077 903.5 L 1077.5 900 Q 1075.3 900.8 1076 898.5 L 1074 895 L 1072 894.5 L 1073 892.5 L 1071 892.5 L 1072 890.5 L 1070.5 887 L 1069.5 889 Q 1069.8 884.8 1067 883.5 L 1068 881.5 L 1066 881.5 L 1067 878.5 L 1066.5 877 L 1065 877.5 L 1064.5 876 Q 1063.3 878.2 1062 875.5 L 1062 873.5 L 1059 869.5 L 1062 868.5 L 1057 866.5 L 1059 865.5 L 1058 863 Q 1055.3 864.1 1056 861.5 L 1054 858.5 L 1054.5 857 L 1053 857 L 1053 853 Q 1050.3 854.1 1051 851.5 L 1050 849 L 1048 848.5 L 1048.5 847 L 1047 846.5 Q 1049.3 845.3 1046.5 844 L 1045 843.5 L 1047 842.5 L 1042 836.5 L 1042.5 835 Q 1040.3 835.8 1041 833.5 L 1042 831 L 1039.5 832 L 1040 830.5 L 1038.5 827 L 1037 827.5 L 1038 825.5 L 1037 823 L 1033 820.5 L 1035 820.5 L 1034 817 L 1032 816.5 L 1032.5 815 L 1031 814.5 L 1031.5 813 L 1029 811.5 L 1031 810.5 L 1029 810 L 1028.5 808 Q 1027.3 810.3 1026 807.5 L 1028 807.5 L 1026 804.5 L 1026.5 803 L 1024 802.5 L 1024.5 801 Q 1022.3 801.8 1023 799.5 L 1022 797 L 1020 796.5 L 1021 794.5 L 1019.5 792 L 1021 791.5 L 1018 791 Q 1019.1 788.3 1016.5 789 L 1016.5 788 L 1018 787.5 L 1016 786.5 L 1016.5 785 L 1015 784.5 L 1017 783.5 L 1015 783 L 1014.5 781 L 1013.5 783 L 1013 781.5 Q 1015.2 780.3 1012.5 779 L 1011 778.5 L 1013 778 L 1012.5 776 Q 1011.3 778.2 1010 775.5 L 1010 773.5 L 1008 770.5 L 1008.5 769 L 1006.5 770 L 1005.5 768 L 1007 768.5 L 1006 765 L 1004 764.5 L 1005 762.5 L 1002 761.5 L 1003.5 759 L 1001.5 760 L 1002 758.5 Q 1002.7 755.9 1000 757 L 1000 754.5 L 1000.5 753 L 999 753 L 999 751 Q 996.3 752.1 997 749.5 L 996.5 747 L 995 746.5 L 997 745.5 L 993 744.5 L 994 743.5 L 992.5 741 L 994 740.5 L 989 736.5 L 988 734.5 L 990 734.5 Q 990.8 732.3 988.5 733 L 988.5 731 L 986 729.5 L 985 727.5 L 986 725.5 L 983 726.5 L 984 723 L 981 721.5 L 980 719.5 L 981 717.5 L 978 716.5 L 980 716.5 Q 980.8 714.3 978.5 715 L 978.5 713 L 976 711.5 Q 978.2 710.2 975.5 709 Q 973.3 709.8 974 707.5 L 973 704.5 Q 973.8 702.3 971.5 703 L 972 701.5 L 973 699.5 L 971.5 699 L 970 699.5 L 969.5 696 Q 968.3 698.3 967 695.5 L 968 691 L 966 691.5 L 966.5 693 L 964 691.5 L 966 690.5 L 960.5 680 L 959 679.5 Q 961.5 678 958 676.5 L 957 674.5 L 957 672.5 Q 957.8 670.3 955.5 671 L 954 671.5 L 955 669.5 L 953.5 666 L 952 666.5 Q 954.5 665 951 663.5 L 952 661.5 L 948 659.5 L 950 658.5 L 949 656 L 947 655.5 Q 949.3 654.3 946.5 653 L 945 653.5 L 946 651 L 943 649.5 L 945 648.5 L 943 647.5 Q 945.3 646.3 942.5 645 L 941.5 647 L 940 644.5 L 942 644.5 L 938 639.5 L 939 637.5 L 937 637.5 L 938 634.5 L 936 634.5 L 934.5 631 L 933 631.5 L 933.5 628 Q 931.3 628.8 932 626.5 L 930 623 L 928 622.5 L 930 619.5 L 928 619.5 L 927 615 Q 924.3 616.1 925 613.5 Q 921.5 612 924 610.5 L 923.5 609 L 922 609.5 L 923 606.5 L 922.5 605 L 921 605.5 L 920.5 604 Q 919.3 606.3 918 603.5 L 918 601.5 L 917 599.5 L 917.5 596 Q 915.3 596.8 916 594.5 L 914 591 L 912 590.5 L 913 588.5 L 911 588.5 L 910 586.5 L 911 583.5 L 910 583.5 L 909.5 585 L 909 581.5 L 906 577 L 904 576.5 L 904.5 575 L 903 574.5 L 905 573.5 L 902 571.5 L 902 569.5 L 898 564.5 L 898.5 563 L 897 562.5 L 898 559 L 895.5 560 L 896 558.5 L 894.5 555 L 893 555.5 L 894 553.5 L 893 551 L 891 550.5 L 893 549.5 L 891 549 L 890 545 L 888 544.5 L 888.5 543 L 887 542.5 Q 889.3 541.3 886.5 540 L 885 539.5 L 887 538.5 L 885 538 L 884.5 536 Q 883.2 538.3 882 535.5 L 884 535.5 L 882 532.5 L 882.5 531 L 880 530.5 L 881 529.5 L 879 525.5 L 878.5 523 L 876 524.5 L 877 522.5 L 875.5 520 L 877 520.5 L 877 519 Q 873.3 520.5 874 517.5 L 873.5 515 L 872 514.5 L 874 513.5 L 871 512.5 L 873 511.5 L 871 510.5 L 871.5 509 L 867 506.5 L 869 506 L 868.5 504 Q 867.3 506.3 866 503.5 L 866 501.5 L 864 498.5 L 864.5 497 Q 862.3 497.8 863 495.5 L 862 493 L 860 492.5 L 861 490.5 L 858 489.5 L 859.5 487 L 857.5 488 L 858 486.5 Q 858.8 484.3 856.5 485 L 856.5 484 L 858 483.5 L 856 482.5 L 856.5 481 Q 853.9 481.7 855 479 L 853 479 L 853 477.5 L 852.5 475 L 851 474.5 L 853 473.5 L 849 472.5 Q 852.5 471 850 469.5 L 848 466.5 L 848.5 465 L 846.5 466 L 844 462.5 L 846 462.5 Q 846.8 460.3 844.5 461 L 844.5 459 L 842 457.5 L 841 455.5 L 842 453.5 L 839 454.5 L 840 451 L 837 449.5 L 836 447.5 L 837 445.5 L 834 444.5 L 837 443.5 L 834 442.5 L 834.5 441 L 833 440.5 Q 835.7 438.7 831.5 437 L 830 436.5 L 832 435.5 L 829 434.5 L 829 432.5 Q 829.8 430.3 827.5 431 L 827.5 430 L 829.5 431 L 830 429 L 828 428.5 L 828.5 427 L 826.5 428 L 824.5 423 L 823 422.5 L 824 419 L 821.5 420 L 821 417.5 L 820 415.5 L 821 413.5 L 818 412.5 L 820 411.5 L 818 410.5 L 818.5 409 L 815 407.5 L 817 406.5 L 814 404.5 L 813 402.5 L 813 400.5 Q 813.8 398.3 811.5 399 L 810 399.5 L 811 396.5 L 809.5 392 Q 808.2 394.3 807 391.5 L 808 389.5 L 804 387.5 L 806 386.5 L 802.5 381 L 801 381.5 L 802 377.5 L 799 375.5 Q 801.5 374 798 372.5 L 794 367.5 L 795 365.5 L 793 365.5 L 794 362.5 L 792 362.5 L 790.5 357 L 789 357.5 L 789.5 356 Q 787.3 356.8 788 354.5 L 786 351 L 788 350.5 L 786.5 349 L 784 350.5 L 786 347.5 L 784 347.5 L 783 343 Q 780.3 344.1 781 341.5 Q 777.5 340 780 338.5 L 779.5 337 L 778 337.5 L 779 334.5 L 778.5 333 L 777 333.5 L 776.5 332 Q 775.3 334.3 774 331.5 L 774 329.5 L 773 327.5 L 773.5 324 Q 771.3 324.8 772 322.5 L 770 319 L 768 318.5 L 769 316.5 L 767 316.5 L 768 314.5 L 766.5 311 L 765.5 313 L 765 309.5 L 760 302.5 L 761 300.5 L 758 299.5 L 758 297.5 L 754 292.5 L 754.5 291 L 753 290.5 L 755 289.5 L 754 287 Q 751.3 288.1 752 285.5 L 749 279 L 747 278.5 L 749 277.5 L 747 277 L 746 273 L 744 272.5 L 744.5 271 L 743 270.5 Q 745.3 269.3 742.5 268 L 741 267.5 L 743 266.5 L 741 266 L 738 260.5 L 738.5 259 L 736 258.5 L 738 255 L 735.5 256 L 736 254.5 L 734.5 251 L 733 251.5 L 732 249.5 L 733 247 L 729 244.5 L 729.5 243 L 728 242.5 L 730 241.5 L 728 240.5 L 728.5 239 L 727 238.5 L 727.5 237 L 724 234.5 L 725 232.5 L 722.5 232 L 721 233.5 L 717.5 239 L 716 238.5 L 725.5 226 Z M 756 292 L 756 293 L 758 293 L 756 292 Z M 781 339 L 782 341 Q 783 338 781 339 Z M 1085 915 L 1086 917 Q 1087 914 1085 915 Z " /><path fill="rgb(255,131,51)" stroke="rgb(255,131,51)" stroke-width="0" opacity="0.9764705882352941" d="M 715.5 240 L 716 242 L 714 241.5 L 715.5 240 Z " /><path fill="rgb(255,131,51)" stroke="rgb(255,131,51)" stroke-width="0" opacity="0.9764705882352941" d="M 799.5 377 L 800.5 379 L 799.5 377 Z " /><path fill="rgb(255,131,51)" stroke="rgb(255,131,51)" stroke-width="0" opacity="0.9764705882352941" d="M 959.5 681 L 960.5 683 L 959.5 681 Z " /><path fill="rgb(255,131,51)" stroke="rgb(255,131,51)" stroke-width="0" opacity="0.9764705882352941" d="M 736.5 727 L 733.5 731 L 736.5 727 Z " /><path fill="rgb(255,131,51)" stroke="rgb(255,131,51)" stroke-width="0" opacity="0.9764705882352941" d="M 766.5 754 L 767.5 756 L 766.5 754 Z " /><path fill="rgb(255,131,51)" stroke="rgb(255,131,51)" stroke-width="0" opacity="0.9764705882352941" d="M 800.5 786 L 801.5 788 L 800.5 786 Z " /><path fill="rgb(255,131,51)" stroke="rgb(255,131,51)" stroke-width="0" opacity="0.9764705882352941" d="M 852.5 835 L 853.5 837 L 852.5 835 Z " /><path fill="rgb(255,131,51)" stroke="rgb(255,131,51)" stroke-width="0" opacity="0.9764705882352941" d="M 620.5 842 L 613.5 850 L 620.5 842 Z " /><path fill="rgb(255,131,51)" stroke="rgb(255,131,51)" stroke-width="0" opacity="0.9764705882352941" d="M 904.5 884 L 905.5 886 L 904.5 884 Z " /><path fill="rgb(255,131,51)" stroke="rgb(255,131,51)" stroke-width="0" opacity="0.9764705882352941" d="M 921.5 900 L 922.5 902 L 921.5 900 Z " /><path fill="rgb(255,131,51)" stroke="rgb(255,131,51)" stroke-width="0" opacity="0.9764705882352941" d="M 973.5 949 L 974.5 951 L 973.5 949 Z " /><path fill="rgb(255,131,51)" stroke="rgb(255,131,51)" stroke-width="0" opacity="0.9764705882352941" d="M 1103.5 953 L 1104.5 955 L 1103.5 953 Z " /><path fill="rgb(255,131,51)" stroke="rgb(255,131,51)" stroke-width="0" opacity="0.9764705882352941" d="M 500.5 961 L 494.5 968 L 500.5 961 Z " /><path fill="rgb(255,131,51)" stroke="rgb(255,131,51)" stroke-width="0" opacity="0.9764705882352941" d="M 1007.5 981 L 1009.5 984 L 1007.5 981 Z " /><path fill="rgb(255,131,51)" stroke="rgb(255,131,51)" stroke-width="0" opacity="0.9764705882352941" d="M 1025.5 998 L 1026.5 1000 L 1025.5 998 Z " /><path fill="rgb(255,131,51)" stroke="rgb(255,131,51)" stroke-width="0" opacity="0.9764705882352941" d="M 140.5 1033 L 139.5 1035 L 140.5 1033 Z " /><path fill="rgb(255,131,51)" stroke="rgb(255,131,51)" stroke-width="0" opacity="0.9764705882352941" d="M 127.5 1051 L 126.5 1053 L 127.5 1051 Z " /><path fill="rgb(255,131,51)" stroke="rgb(255,131,51)" stroke-width="0" opacity="0.9764705882352941" d="M 119.5 1062 L 119 1063.5 L 116.5 1067 L 118 1064.5 L 119.5 1062 Z " /><path fill="rgb(255,131,51)" stroke="rgb(255,131,51)" stroke-width="0" opacity="0.9764705882352941" d="M 115.5 1068 L 116 1070 L 113.5 1071 L 115.5 1068 Z " /><path fill="rgb(255,131,51)" stroke="rgb(255,131,51)" stroke-width="0" opacity="0.9764705882352941" d="M 112.5 1072 L 112 1073.5 L 90 1104.5 L 93 1108.5 L 89 1106.5 L 92 1110.5 Q 89.8 1111.8 92.5 1113 L 93.5 1110 L 94 1112.5 L 93.5 1114 L 95.5 1113 L 96.5 1115 Q 95.3 1112.8 94 1115.5 L 94.5 1117 L 96.5 1117 L 98.5 1116 L 96 1119.5 L 97.5 1121 L 98.5 1119 L 100 1121.5 L 98 1123.5 L 102.5 1128 L 103.5 1126 L 104 1127.5 L 103 1130 L 105 1130.5 L 103 1131.5 L 103.5 1133 L 102 1133.5 L 105 1134 L 105.5 1132 L 106 1133.5 L 105.5 1135 L 107.5 1134 L 107 1137.5 L 109.5 1141 L 137.5 1120 L 134.5 1124 L 1.5 1226 L 3 1223.5 L 112.5 1072 Z M 99 1126 L 100 1128 Q 101 1125 99 1126 Z M 100 1128 L 100 1130 L 102 1129 L 100 1128 Z M 106 1139 L 107 1141 Q 108 1138 106 1139 Z " /><path fill="rgb(255,131,51)" stroke="rgb(255,131,51)" stroke-width="0" opacity="0.9764705882352941" d="M 175.5 1091 L 174.5 1093 L 175.5 1091 Z " /><path fill="rgb(255,131,51)" stroke="rgb(255,131,51)" stroke-width="0" opacity="0.9764705882352941" d="M 166.5 1098 L 165.5 1100 L 166.5 1098 Z " /><path fill="rgb(255,131,51)" stroke="rgb(255,131,51)" stroke-width="0" opacity="0.9764705882352941" d="M 154.5 1107 L 152.5 1110 L 154.5 1107 Z " /><path fill="rgb(255,131,51)" stroke="rgb(255,131,51)" stroke-width="0" opacity="0.9764705882352941" d="M 148.5 1112 L 147.5 1114 L 148.5 1112 Z " /><path fill="rgb(255,131,51)" stroke="rgb(255,131,51)" stroke-width="0" opacity="0.9764705882352941" d="M 144.5 1115 L 143.5 1117 L 144.5 1115 Z " /><path fill="rgb(255,131,51)" stroke="rgb(255,131,51)" stroke-width="0" opacity="0.9764705882352941" d="M 141.5 1117 L 139.5 1120 L 139 1118 L 141.5 1117 Z " /></svg>